<svg width="192" height="192" viewBox="0 0 192 192" fill="none" xmlns="http://www.w3.org/2000/svg">
<path d="M144 160C144 147.27 138.943 135.061 129.941 126.059C120.939 117.057 108.73 112 96 112C83.2696 112 71.0606 117.057 62.0589 126.059C53.0571 135.061 48 147.27 48 160" stroke="black" stroke-width="10" stroke-linecap="round" stroke-linejoin="round"/>
<path d="M96 112C113.673 112 128 97.6731 128 80C128 62.3269 113.673 48 96 48C78.3269 48 64 62.3269 64 80C64 97.6731 78.3269 112 96 112Z" stroke="black" stroke-width="10" stroke-linecap="round" stroke-linejoin="round"/>
<path d="M96 176C140.183 176 176 140.183 176 96C176 51.8172 140.183 16 96 16C51.8172 16 16 51.8172 16 96C16 140.183 51.8172 176 96 176Z" stroke="black" stroke-width="10" stroke-linecap="round" stroke-linejoin="round"/>
</svg>
